<?xml version="1.0" standalone="no"?>
<!DOCTYPE svg PUBLIC "-//W3C//DTD SVG 20010904//EN"
 "http://www.w3.org/TR/2001/REC-SVG-20010904/DTD/svg10.dtd">
<svg version="1.0" xmlns="http://www.w3.org/2000/svg"
 width="512.000000pt" height="512.000000pt" viewBox="0 0 512.000000 512.000000"
 preserveAspectRatio="xMidYMid meet">
<metadata>
Created by potrace 1.11, written by Peter Selinger 2001-2013
</metadata>
<g transform="translate(0.000000,512.000000) scale(0.100000,-0.100000)"
fill="#000000" stroke="none">
<path d="M2961 4090 c-38 -9 -86 -42 -116 -79 -46 -57 -48 -75 -50 -487 l-2
-390 -29 -54 c-86 -160 -313 -158 -396 3 -16 32 -22 64 -25 137 -5 142 -11
174 -43 219 -46 64 -98 92 -172 96 -106 6 -192 -51 -225 -148 -11 -32 -15
-103 -15 -306 0 -283 -2 -299 -55 -367 -57 -76 -170 -104 -259 -65 -86 39
-133 109 -139 212 -4 80 -24 135 -61 175 -67 70 -175 93 -260 55 -49 -23 -107
-88 -122 -140 -18 -58 -16 -1183 2 -1233 58 -162 277 -202 386 -70 37 45 49
86 54 184 5 90 22 134 73 185 66 66 174 80 262 35 42 -22 96 -89 109 -135 5
-17 9 -230 10 -472 1 -242 3 -450 6 -462 12 -55 64 -121 119 -150 41 -21 127
-28 170 -14 19 7 56 30 80 52 76 67 78 80 78 505 -1 227 3 382 10 408 12 49
68 115 119 142 45 24 153 25 195 2 42 -22 83 -66 106 -111 15 -29 21 -64 23
-155 5 -133 18 -174 71 -227 124 -119 329 -63 375 104 6 20 10 169 10 345 0
214 4 321 12 350 8 25 31 59 59 87 37 38 57 49 102 59 97 22 187 -15 242 -98
29 -44 36 -83 39 -216 2 -111 18 -156 73 -208 118 -113 321 -56 366 102 20 68
17 1181 -2 1230 -37 92 -101 140 -195 147 -69 6 -112 -8 -164 -52 -61 -51 -75
-95 -78 -235 -4 -158 -8 -177 -45 -233 -57 -86 -176 -121 -270 -80 -54 25 -92
62 -118 117 -20 40 -21 61 -21 551 l-1 510 -25 53 c-49 101 -151 148 -263 122z"/>
<path d="M4760 2847 c-49 -16 -123 -93 -138 -144 -8 -28 -12 -105 -12 -228 2
-176 3 -187 27 -235 75 -151 283 -167 383 -29 37 52 44 97 43 297 -1 187 -10
226 -71 285 -61 60 -149 80 -232 54z"/>
<path d="M263 2789 c-76 -14 -131 -55 -169 -129 -26 -49 -31 -367 -7 -450 45
-162 246 -213 368 -94 64 62 73 101 70 324 -1 157 -4 190 -19 220 -50 97 -144
146 -243 129z"/>
</g>
</svg>
