<svg width="149" height="103" viewBox="0 0 149 103" fill="none" xmlns="http://www.w3.org/2000/svg">
<defs>
  <style>
    path {
      stroke: none;
      fill: url(#grad);
    }
  </style>
  <linearGradient id="grad" x1="20" y1="50" x2="129" y2="0" gradientUnits="userSpaceOnUse">
    <stop stop-color="#3762D2"/>
    <stop offset="1" stop-color="#24C597"/>
  </linearGradient>
</defs>
<path d="M93 12C93 8.68629 90.3137 6 87 6C83.6863 6 81 8.68629 81 12V31.5C81 35.0899 78.0899 38 74.5 38C70.9101 38 68 35.0899 68 31.5V27C68 23.6863 65.3137 21 62 21C58.6863 21 56 23.6863 56 27V40.2623C56 43.9834 52.9834 47 49.2623 47C45.5412 47 42.5246 43.9834 42.5246 40.2623V39.2705C42.5246 35.8979 39.7906 33.1639 36.418 33.1639C33.0455 33.1639 30.3115 35.8979 30.3115 39.2705V71.0246C30.3115 74.3971 33.0455 77.1311 36.418 77.1311C39.7906 77.1311 42.5246 74.3972 42.5246 71.0246V68.7377C42.5246 65.0166 45.5412 62 49.2623 62C52.9834 62 56 65.0166 56 68.7377V92C56 95.3137 58.6863 98 62 98C65.3137 98 68 95.3137 68 92V72.5C68 68.9101 70.9101 66 74.5 66C78.0899 66 81 68.9101 81 72.5V76C81 79.3137 83.6863 82 87 82C90.3137 82 93 79.3137 93 76V60.5C93 56.9101 95.9101 54 99.5 54C103.09 54 106 56.9101 106 60.5V64.8607C106 68.2332 108.734 70.9672 112.107 70.9672C115.479 70.9672 118.213 68.2332 118.213 64.8606V33.1066C118.213 29.734 115.479 27 112.107 27C108.734 27 106 29.734 106 33.1066V37.5C106 41.0899 103.09 44 99.5 44C95.9101 44 93 41.0899 93 37.5V12Z" />
<path d="M4.88525 48.041C4.88525 44.6684 7.61925 41.9344 10.9918 41.9344C14.3644 41.9344 17.0984 44.6684 17.0984 48.041V57.8115C17.0984 61.184 14.3644 63.918 10.9918 63.918C7.61925 63.918 4.88525 61.184 4.88525 57.8115V48.041Z" />
<path d="M138 40C141.314 40 144 42.6863 144 46V55C144 58.3137 141.314 61 138 61C134.686 61 132 58.3137 132 55V46C132 42.6863 134.686 40 138 40Z" />
</svg>
